<svg width="100%" height="100%" viewBox="0 0 441 462" fill="none" xmlns="http://www.w3.org/2000/svg">
<g id="Group 98">
<g id="Group 86">
<path id="Vector 58" d="M216.747 136.272C216.747 136.272 212.185 133.019 203.201 135.025C199.029 135.956 197.715 142.695 194.465 149.402C190.715 157.141 183.944 166.155 189.188 171.604C194.432 177.052 199.701 174.361 206.765 174.5C213.829 174.639 222.237 176.389 224.115 175.754C228.137 174.393 226.181 165.118 226.181 165.118C226.181 165.118 248.954 167.838 254.416 162.279C259.878 156.719 255.075 149.986 255.075 149.986C255.075 149.986 277.112 136.415 270.673 126.384C264.235 116.352 245.292 125.506 245.292 125.506C245.292 125.506 243.804 117.171 237.414 119.675C231.024 122.179 216.747 136.272 216.747 136.272Z" fill="#8DBF88" stroke="black" stroke-width="8.61106" stroke-linecap="round"/>
<g id="Group 42">
<path id="Vector 22" d="M176.002 187.02C196.972 161.889 213.393 150.176 231.866 146.167" stroke="black" stroke-width="8.61106" stroke-linecap="round"/>
</g>
</g>
<g id="Group 87">
<path id="Vector 58_2" d="M369.575 263.513C369.575 263.513 370.871 269.801 366.707 274.99C362.543 280.179 357.923 278.929 350.625 280.44C342.204 282.184 331.808 286.546 327.807 280.129C323.806 273.712 327.704 269.261 329.296 262.377C330.888 255.493 329.952 244.478 331.027 242.813C333.329 239.245 341.684 243.756 341.684 243.756C341.684 243.756 345.362 220.827 352.088 216.89C358.815 212.953 364.071 221.037 364.071 221.037C364.071 221.037 375.654 198.651 383.807 207.346C391.96 216.042 381.367 234.917 381.367 234.917C381.367 234.917 392.233 237.731 390.249 246.2C388.265 254.669 369.575 263.513 369.575 263.513Z" fill="#8DBF88" stroke="black" stroke-width="8.61106" stroke-linecap="round"/>
<g id="Group 42_2">
<path id="Vector 22_2" d="M313.142 288.006C342.29 273.117 357.347 259.695 365.345 242.568" stroke="black" stroke-width="8.61106" stroke-linecap="round"/>
</g>
</g>
<g id="Group 45">
<circle id="Ellipse 38" cx="238.065" cy="65.8441" r="19.0673" transform="rotate(-94.8081 238.065 65.8441)" fill="#DD3F3F" stroke="black" stroke-width="8.61106"/>
<path id="Vector 23" d="M247.26 60.7218C245.415 57.8171 241.998 55.481 238.358 55.1352" stroke="#F0C6BF" stroke-width="4.9206" stroke-linecap="round"/>
</g>
<g id="Group 79">
<g id="Subtract">
<mask id="path-7-inside-1_823_2368" fill="white">
<path fill-rule="evenodd" clip-rule="evenodd" d="M420.354 293.034C422.438 287.177 415.089 282.765 410.189 286.589C390.802 301.719 367.773 312.829 342.105 318.372C251.322 337.978 161.889 280.531 142.351 190.06C131.413 139.414 144.698 89.1557 174.44 51.2829C178.285 46.3858 173.864 39.0053 167.996 41.0886C75.8703 73.798 20.149 170.612 41.3355 268.716C64.349 375.278 169.391 443.008 275.954 419.995C345.303 405.018 398.205 355.301 420.354 293.034Z"/>
</mask>
<path fill-rule="evenodd" clip-rule="evenodd" d="M420.354 293.034C422.438 287.177 415.089 282.765 410.189 286.589C390.802 301.719 367.773 312.829 342.105 318.372C251.322 337.978 161.889 280.531 142.351 190.06C131.413 139.414 144.698 89.1557 174.44 51.2829C178.285 46.3858 173.864 39.0053 167.996 41.0886C75.8703 73.798 20.149 170.612 41.3355 268.716C64.349 375.278 169.391 443.008 275.954 419.995C345.303 405.018 398.205 355.301 420.354 293.034Z" fill="#FED257"/>
<path d="M174.44 51.2829L164.765 43.6852L174.44 51.2829ZM167.996 41.0886L163.88 29.4961L167.996 41.0886ZM410.189 286.589L417.757 296.287L410.189 286.589ZM420.354 293.034L408.764 288.911L420.354 293.034ZM402.62 276.891C384.663 290.905 363.328 301.204 339.508 306.348L344.702 330.397C372.219 324.454 396.94 312.533 417.757 296.287L402.62 276.891ZM339.508 306.348C255.327 324.528 172.47 271.254 154.375 187.464L130.326 192.657C151.307 289.808 247.317 351.428 344.702 330.397L339.508 306.348ZM154.375 187.464C144.244 140.555 156.531 94.0045 184.115 58.8805L164.765 43.6852C132.864 84.3069 118.582 138.274 130.326 192.657L154.375 187.464ZM53.3598 266.119C33.4956 174.139 85.7391 83.348 172.112 52.6811L163.88 29.4961C66.0014 64.2481 6.80237 167.086 29.3112 271.312L53.3598 266.119ZM273.357 407.971C173.435 429.55 74.9391 366.041 53.3598 266.119L29.3112 271.312C53.7588 384.516 165.347 456.467 278.551 432.019L273.357 407.971ZM408.764 288.911C387.983 347.334 338.37 393.93 273.357 407.971L278.551 432.019C352.235 416.106 408.427 363.269 431.944 297.156L408.764 288.911ZM184.115 58.8805C189.592 51.9058 189.07 43.1586 185.324 37.0993C181.434 30.8072 173.146 26.2061 163.88 29.4961L172.112 52.6811C170.803 53.146 169.078 53.1917 167.42 52.5234C165.903 51.9119 164.938 50.9119 164.397 50.0369C163.367 48.3713 163.133 45.7628 164.765 43.6852L184.115 58.8805ZM417.757 296.287C415.688 297.902 413.085 297.676 411.409 296.636C410.53 296.091 409.528 295.121 408.917 293.6C408.251 291.938 408.3 290.216 408.764 288.911L431.944 297.156C435.233 287.912 430.663 279.625 424.372 275.725C418.317 271.972 409.59 271.452 402.62 276.891L417.757 296.287Z" fill="black" mask="url(#path-7-inside-1_823_2368)"/>
</g>
<path id="Subtract_2" fill-rule="evenodd" clip-rule="evenodd" d="M86.2986 156.229C75.5423 178.177 69.5034 202.857 69.5034 228.948C69.5034 320.326 143.58 394.403 234.959 394.403C252.452 394.403 269.312 391.688 285.139 386.657C173.789 380.158 85.4954 287.801 85.4954 174.821C85.4954 168.557 85.7668 162.356 86.2986 156.229Z" fill="#FFF2CC"/>
</g>
<g id="Group 85">
<path id="Vector 55" d="M339.622 114.135L330.679 125.606C329.245 127.445 326.896 128.315 324.611 127.854L311.202 125.147C305.846 124.066 301.844 129.986 304.844 134.553L312.957 146.905C314.19 148.782 314.302 151.183 313.249 153.166L306.943 165.042C304.413 169.806 308.804 175.287 314.006 173.857L326.853 170.325C328.991 169.737 331.28 170.345 332.844 171.917L343.295 182.422C347.011 186.156 353.394 183.797 353.789 178.544L354.869 164.166C355.022 162.122 356.184 160.289 357.967 159.277L370.426 152.207C375.02 149.6 374.407 142.796 369.421 141.052L356.782 136.63C354.624 135.875 353.062 133.985 352.728 131.723L350.558 117.018C349.768 111.666 342.949 109.868 339.622 114.135Z" fill="#FED257" stroke="black" stroke-width="7.3809"/>
<g id="Group 84">
<path id="Vector 56" d="M344.75 128.565C344.751 135.578 347.018 141.296 355.002 144.748" stroke="#FFF2CC" stroke-width="4.9206" stroke-linecap="round"/>
</g>
</g>
<g id="Group 89">
<g id="Vector">
<path d="M260.281 219.79C265.905 226.495 275.057 248.088 277.428 260.039C278.011 262.974 275.216 265.318 272.427 264.234C261.072 259.82 241.4 247.049 235.776 240.344C228.274 231.4 228.155 224.282 236.972 216.886C245.789 209.49 252.779 210.846 260.281 219.79Z" fill="#DD3F3F"/>
<path d="M236.972 216.886C228.155 224.282 228.274 231.4 235.776 240.344C241.4 247.049 261.072 259.82 272.427 264.234C275.216 265.318 278.011 262.974 277.428 260.039C275.057 248.088 265.905 226.495 260.281 219.79C252.779 210.846 245.789 209.49 236.972 216.886ZM236.972 216.886L228.759 207.094" stroke="black" stroke-width="8.61106" stroke-linecap="round"/>
</g>
<path id="Vector 59" d="M248.49 221.419C252.851 224.99 255.256 227.57 257.101 231.26" stroke="#F0C6BF" stroke-width="4.9206" stroke-linecap="round"/>
</g>
</g>
</svg>
