<svg width="100%" height="100%" viewBox="0 0 1704 845" fill="none" xmlns="http://www.w3.org/2000/svg">
<g filter="url(#filter0_d_1010_2400)">
<rect width="1673" height="809" fill="white"/>
<rect x="4" y="4" width="1665" height="801" stroke="black" stroke-width="8"/>
</g>
<path d="M689 417.863V471.281C689 474.02 688.047 476.402 686.141 478.427C684.236 480.452 681.913 481.464 679.174 481.464H633.438C630.699 481.464 628.377 480.452 626.471 478.427C624.565 476.402 623.612 474.02 623.612 471.281V340.506C623.612 339.315 624.148 338.72 625.22 338.72H644.872C645.944 338.72 646.48 339.315 646.48 340.506V389.457H666.132V340.506C666.132 340.03 666.311 339.613 666.668 339.256C667.025 338.899 667.383 338.72 667.74 338.72H687.213C688.404 338.72 689 339.315 689 340.506V397.318H702.756V338.72C702.756 338.243 702.935 337.886 703.292 337.648C703.768 337.291 704.185 337.112 704.543 337.112H722.408C723.48 337.112 724.016 337.648 724.016 338.72V493.612C724.016 494.684 723.48 495.22 722.408 495.22H704.543C704.185 495.22 703.768 495.042 703.292 494.684C702.935 494.446 702.756 494.089 702.756 493.612V417.863H689ZM666.132 410.181H646.48V460.74H666.132V410.181ZM754.208 493.612C754.208 494.684 753.672 495.22 752.6 495.22H734.735C734.378 495.22 733.961 495.042 733.484 494.684C733.127 494.446 732.948 494.089 732.948 493.612V338.72C732.948 338.243 733.127 337.886 733.484 337.648C733.961 337.291 734.378 337.112 734.735 337.112H752.6C753.672 337.112 754.208 337.648 754.208 338.72V493.612ZM871.319 473.425C871.438 473.663 871.438 474.08 871.319 474.675C871.319 475.271 871.14 475.628 870.783 475.747L853.811 481.107C852.501 481.345 851.667 481.107 851.31 480.392L825.762 392.137L800.215 480.392C799.977 480.749 799.62 480.988 799.143 481.107C798.667 481.226 798.19 481.226 797.714 481.107L780.742 475.747C780.385 475.628 780.146 475.271 780.027 474.675C780.027 474.08 780.087 473.663 780.206 473.425L813.078 361.052H785.744C785.387 361.052 784.97 360.873 784.494 360.516C784.136 360.158 783.958 359.801 783.958 359.444V342.293C783.958 341.817 784.136 341.4 784.494 341.042C784.97 340.685 785.387 340.506 785.744 340.506H865.781C866.138 340.506 866.496 340.685 866.853 341.042C867.21 341.4 867.389 341.817 867.389 342.293V359.444C867.389 359.801 867.21 360.158 866.853 360.516C866.496 360.873 866.138 361.052 865.781 361.052H838.447L871.319 473.425ZM908.3 493.612C908.3 494.684 907.764 495.22 906.693 495.22H887.041C885.969 495.22 885.433 494.684 885.433 493.612V338.72C885.433 337.648 885.969 337.112 887.041 337.112H906.693C907.764 337.112 908.3 337.648 908.3 338.72V493.612ZM1055.6 434.835C1055.25 435.074 1054.83 435.193 1054.35 435.193C1054 435.074 1053.7 434.835 1053.46 434.478L1007.01 362.302L960.56 434.478C960.322 434.835 959.965 435.074 959.488 435.193C959.131 435.193 958.774 435.074 958.416 434.835L943.052 424.295C942.695 424.057 942.516 423.699 942.516 423.223C942.635 422.627 942.814 422.151 943.052 421.794L996.112 339.613C997.303 337.708 998.852 336.338 1000.76 335.504C1002.78 334.551 1004.87 334.075 1007.01 334.075C1009.15 334.075 1011.24 334.551 1013.26 335.504C1015.29 336.338 1016.9 337.708 1018.09 339.613L1070.97 421.794C1071.33 422.151 1071.5 422.627 1071.5 423.223C1071.62 423.699 1071.44 424.057 1070.97 424.295L1055.6 434.835ZM1077.22 484.858C1077.22 486.049 1076.68 486.645 1075.61 486.645H938.407C937.335 486.645 936.799 486.049 936.799 484.858V467.708C936.799 466.636 937.335 466.1 938.407 466.1H1075.61C1076.68 466.1 1077.22 466.636 1077.22 467.708V484.858ZM1168.96 476.283C1168.96 477.474 1168.37 478.07 1167.18 478.07H1092.14C1091.07 478.07 1090.53 477.474 1090.53 476.283V459.132C1090.53 458.06 1091.07 457.524 1092.14 457.524H1101.97V361.052H1094.64C1094.17 361.052 1093.75 360.873 1093.39 360.516C1093.15 360.158 1093.04 359.801 1093.04 359.444V342.293C1093.04 341.102 1093.57 340.506 1094.64 340.506H1164.85C1165.21 340.506 1165.57 340.685 1165.93 341.042C1166.28 341.4 1166.46 341.817 1166.46 342.293V359.444C1166.46 359.801 1166.28 360.158 1165.93 360.516C1165.57 360.873 1165.21 361.052 1164.85 361.052H1157.53V457.524H1167.18C1168.37 457.524 1168.96 458.06 1168.96 459.132V476.283ZM1136.27 457.524V361.052H1123.23V457.524H1136.27ZM1160.74 417.863C1159.67 417.863 1159.14 417.268 1159.14 416.077V398.926C1159.14 397.854 1159.67 397.318 1160.74 397.318H1174.5V338.72C1174.5 338.243 1174.68 337.886 1175.04 337.648C1175.51 337.291 1175.93 337.112 1176.29 337.112H1194.33C1195.28 337.112 1195.76 337.648 1195.76 338.72V493.612C1195.76 494.684 1195.28 495.22 1194.33 495.22H1176.29C1175.93 495.22 1175.51 495.042 1175.04 494.684C1174.68 494.446 1174.5 494.089 1174.5 493.612V417.863H1160.74ZM1226.13 493.612C1226.13 494.089 1225.95 494.446 1225.6 494.684C1225.24 495.042 1224.88 495.22 1224.52 495.22H1206.66C1205.47 495.22 1204.87 494.684 1204.87 493.612V338.72C1204.87 337.648 1205.47 337.112 1206.66 337.112H1224.52C1224.88 337.112 1225.24 337.291 1225.6 337.648C1225.95 337.886 1226.13 338.243 1226.13 338.72V493.612ZM1341.1 409.288C1341.1 420.007 1339.97 429.833 1337.7 438.766C1335.56 447.579 1332.46 455.142 1328.41 461.455C1324.48 467.767 1319.72 472.71 1314.12 476.283C1308.64 479.737 1302.63 481.464 1296.08 481.464C1289.41 481.464 1283.33 479.737 1277.86 476.283C1272.38 472.71 1267.61 467.767 1263.56 461.455C1259.63 455.142 1256.54 447.579 1254.27 438.766C1252.13 429.833 1251.06 420.007 1251.06 409.288C1251.06 398.569 1252.13 388.802 1254.27 379.989C1256.54 371.056 1259.63 363.434 1263.56 357.121C1267.61 350.69 1272.38 345.747 1277.86 342.293C1283.33 338.839 1289.41 337.112 1296.08 337.112C1302.63 337.112 1308.64 338.839 1314.12 342.293C1319.72 345.747 1324.48 350.69 1328.41 357.121C1332.46 363.434 1335.56 371.056 1337.7 379.989C1339.97 388.802 1341.1 398.569 1341.1 409.288ZM1318.05 409.288C1318.05 402.023 1317.52 395.293 1316.45 389.1C1315.37 382.907 1313.82 377.547 1311.8 373.021C1309.89 368.495 1307.57 364.982 1304.83 362.481C1302.21 359.98 1299.29 358.729 1296.08 358.729C1292.86 358.729 1289.89 359.98 1287.15 362.481C1284.41 364.982 1282.02 368.495 1280 373.021C1278.09 377.547 1276.61 382.907 1275.53 389.1C1274.46 395.293 1273.93 402.023 1273.93 409.288C1273.93 416.672 1274.46 423.461 1275.53 429.655C1276.61 435.848 1278.09 441.207 1280 445.733C1282.02 450.14 1284.41 453.654 1287.15 456.274C1289.89 458.775 1292.86 460.026 1296.08 460.026C1299.29 460.026 1302.21 458.775 1304.83 456.274C1307.57 453.654 1309.89 450.14 1311.8 445.733C1313.82 441.207 1315.37 435.848 1316.45 429.655C1317.52 423.461 1318.05 416.672 1318.05 409.288ZM1380.22 493.612C1380.22 494.089 1380.05 494.446 1379.69 494.684C1379.33 495.042 1378.97 495.22 1378.62 495.22H1358.96C1357.89 495.22 1357.36 494.684 1357.36 493.612V338.72C1357.36 337.648 1357.89 337.112 1358.96 337.112H1378.62C1378.97 337.112 1379.33 337.291 1379.69 337.648C1380.05 337.886 1380.22 338.243 1380.22 338.72V493.612ZM1527.53 434.835C1527.17 435.074 1526.75 435.193 1526.28 435.193C1525.92 435.074 1525.62 434.835 1525.38 434.478L1478.93 362.302L1432.48 434.478C1432.25 434.835 1431.89 435.074 1431.41 435.193C1431.05 435.193 1430.7 435.074 1430.34 434.835L1414.98 424.295C1414.62 424.057 1414.44 423.699 1414.44 423.223C1414.56 422.627 1414.74 422.151 1414.98 421.794L1468.04 339.613C1469.23 337.708 1470.78 336.338 1472.68 335.504C1474.71 334.551 1476.79 334.075 1478.93 334.075C1481.08 334.075 1483.16 334.551 1485.19 335.504C1487.21 336.338 1488.82 337.708 1490.01 339.613L1542.89 421.794C1543.25 422.151 1543.43 422.627 1543.43 423.223C1543.55 423.699 1543.37 424.057 1542.89 424.295L1527.53 434.835ZM1549.14 484.858C1549.14 486.049 1548.61 486.645 1547.54 486.645H1410.33C1409.26 486.645 1408.72 486.049 1408.72 484.858V467.708C1408.72 466.636 1409.26 466.1 1410.33 466.1H1547.54C1548.61 466.1 1549.14 466.636 1549.14 467.708V484.858Z" fill="black"/>
<path d="M352.747 310.272C352.747 310.272 348.185 307.019 339.201 309.025C335.029 309.956 333.715 316.695 330.465 323.402C326.715 331.141 319.944 340.155 325.188 345.604C330.432 351.052 335.701 348.361 342.765 348.5C349.829 348.639 358.237 350.389 360.115 349.754C364.137 348.393 362.181 339.118 362.181 339.118C362.181 339.118 384.954 341.838 390.416 336.279C395.878 330.719 391.075 323.986 391.075 323.986C391.075 323.986 413.112 310.415 406.673 300.384C400.235 290.352 381.292 299.506 381.292 299.506C381.292 299.506 379.804 291.171 373.414 293.675C367.024 296.179 352.747 310.272 352.747 310.272Z" fill="#8DBF88" stroke="black" stroke-width="8.61106" stroke-linecap="round"/>
<path d="M312.002 361.02C332.972 335.889 349.393 324.176 367.866 320.167" stroke="black" stroke-width="8.61106" stroke-linecap="round"/>
<path d="M505.575 437.513C505.575 437.513 506.871 443.801 502.707 448.99C498.543 454.179 493.923 452.929 486.625 454.44C478.204 456.184 467.808 460.546 463.807 454.129C459.806 447.712 463.704 443.261 465.296 436.377C466.888 429.493 465.952 418.478 467.027 416.813C469.329 413.245 477.684 417.756 477.684 417.756C477.684 417.756 481.362 394.827 488.088 390.89C494.815 386.953 500.071 395.037 500.071 395.037C500.071 395.037 511.654 372.651 519.807 381.346C527.96 390.042 517.367 408.917 517.367 408.917C517.367 408.917 528.233 411.731 526.249 420.2C524.265 428.669 505.575 437.513 505.575 437.513Z" fill="#8DBF88" stroke="black" stroke-width="8.61106" stroke-linecap="round"/>
<path d="M449.142 462.006C478.29 447.117 493.347 433.695 501.345 416.568" stroke="black" stroke-width="8.61106" stroke-linecap="round"/>
<circle cx="374.065" cy="239.844" r="19.0673" transform="rotate(-94.8081 374.065 239.844)" fill="#DD3F3F" stroke="black" stroke-width="8.61106"/>
<path d="M383.26 234.722C381.415 231.817 377.998 229.481 374.358 229.135" stroke="#F0C6BF" stroke-width="4.9206" stroke-linecap="round"/>
<mask id="path-10-inside-1_1010_2400" fill="white">
<path fill-rule="evenodd" clip-rule="evenodd" d="M556.354 467.034C558.438 461.177 551.089 456.765 546.189 460.589C526.802 475.719 503.773 486.829 478.105 492.372C387.322 511.978 297.889 454.531 278.351 364.06C267.413 313.414 280.698 263.156 310.44 225.283C314.285 220.386 309.864 213.005 303.996 215.089C211.87 247.798 156.149 344.612 177.336 442.716C200.349 549.278 305.391 617.008 411.954 593.995C481.303 579.018 534.205 529.301 556.354 467.034Z"/>
</mask>
<path fill-rule="evenodd" clip-rule="evenodd" d="M556.354 467.034C558.438 461.177 551.089 456.765 546.189 460.589C526.802 475.719 503.773 486.829 478.105 492.372C387.322 511.978 297.889 454.531 278.351 364.06C267.413 313.414 280.698 263.156 310.44 225.283C314.285 220.386 309.864 213.005 303.996 215.089C211.87 247.798 156.149 344.612 177.336 442.716C200.349 549.278 305.391 617.008 411.954 593.995C481.303 579.018 534.205 529.301 556.354 467.034Z" fill="#FED257"/>
<path d="M310.44 225.283L320.115 232.881L310.44 225.283ZM546.189 460.589L553.757 470.287L546.189 460.589ZM556.354 467.034L544.764 462.911L556.354 467.034ZM538.62 450.891C520.663 464.905 499.328 475.204 475.508 480.348L480.702 504.397C508.219 498.454 532.94 486.533 553.757 470.287L538.62 450.891ZM475.508 480.348C391.327 498.528 308.47 445.254 290.375 361.464L266.326 366.657C287.307 463.808 383.317 525.428 480.702 504.397L475.508 480.348ZM290.375 361.464C280.244 314.555 292.531 268.005 320.115 232.881L300.765 217.685C268.864 258.307 254.582 312.274 266.326 366.657L290.375 361.464ZM189.36 440.119C169.496 348.139 221.739 257.348 308.112 226.681L299.88 203.496C202.001 238.248 142.802 341.086 165.311 445.312L189.36 440.119ZM409.357 581.971C309.435 603.55 210.939 540.041 189.36 440.119L165.311 445.312C189.759 558.516 301.347 630.467 414.551 606.019L409.357 581.971ZM544.764 462.911C523.983 521.334 474.37 567.93 409.357 581.971L414.551 606.019C488.235 590.106 544.427 537.269 567.944 471.156L544.764 462.911ZM320.115 232.881C325.592 225.906 325.07 217.159 321.324 211.099C317.434 204.807 309.146 200.206 299.88 203.496L308.112 226.681C306.803 227.146 305.078 227.192 303.42 226.523C301.903 225.912 300.938 224.912 300.397 224.037C299.367 222.371 299.133 219.763 300.765 217.685L320.115 232.881ZM553.757 470.287C551.688 471.902 549.085 471.676 547.409 470.636C546.53 470.091 545.528 469.121 544.917 467.6C544.251 465.938 544.3 464.216 544.764 462.911L567.944 471.156C571.233 461.912 566.663 453.625 560.372 449.725C554.317 445.972 545.59 445.452 538.62 450.891L553.757 470.287Z" fill="black" mask="url(#path-10-inside-1_1010_2400)"/>
<path fill-rule="evenodd" clip-rule="evenodd" d="M222.299 330.229C211.542 352.177 205.503 376.857 205.503 402.948C205.503 494.326 279.58 568.403 370.959 568.403C388.452 568.403 405.312 565.688 421.139 560.657C309.789 554.158 221.495 461.801 221.495 348.821C221.495 342.557 221.767 336.356 222.299 330.229Z" fill="#FFF2CC"/>
<path d="M475.622 288.135L466.679 299.606C465.245 301.445 462.896 302.315 460.611 301.854L447.202 299.147C441.846 298.066 437.844 303.986 440.844 308.553L448.957 320.905C450.19 322.782 450.302 325.183 449.249 327.166L442.943 339.042C440.413 343.806 444.804 349.287 450.006 347.857L462.853 344.325C464.991 343.737 467.28 344.345 468.844 345.917L479.295 356.422C483.011 360.156 489.394 357.797 489.789 352.544L490.869 338.166C491.022 336.122 492.184 334.289 493.967 333.277L506.426 326.207C511.02 323.6 510.407 316.796 505.421 315.052L492.782 310.63C490.624 309.875 489.062 307.985 488.728 305.723L486.558 291.018C485.768 285.666 478.949 283.868 475.622 288.135Z" fill="#FED257" stroke="black" stroke-width="7.3809"/>
<path d="M480.75 302.565C480.751 309.578 483.018 315.296 491.002 318.748" stroke="#FFF2CC" stroke-width="4.9206" stroke-linecap="round"/>
<path d="M396.281 393.79C401.905 400.495 411.057 422.088 413.428 434.039C414.011 436.974 411.216 439.318 408.427 438.234C397.072 433.82 377.4 421.049 371.776 414.344C364.274 405.4 364.155 398.282 372.972 390.886C381.789 383.49 388.779 384.846 396.281 393.79Z" fill="#DD3F3F"/>
<path d="M372.972 390.886C364.155 398.282 364.274 405.4 371.776 414.344C377.4 421.049 397.072 433.82 408.427 438.234C411.216 439.318 414.011 436.974 413.428 434.039C411.057 422.088 401.905 400.495 396.281 393.79C388.779 384.846 381.789 383.49 372.972 390.886ZM372.972 390.886L364.759 381.094" stroke="black" stroke-width="8.61106" stroke-linecap="round"/>
<path d="M384.49 395.419C388.851 398.99 391.256 401.57 393.101 405.26" stroke="#F0C6BF" stroke-width="4.9206" stroke-linecap="round"/>
<defs>
<filter id="filter0_d_1010_2400" x="0" y="0" width="1704" height="845" filterUnits="userSpaceOnUse" color-interpolation-filters="sRGB">
<feFlood flood-opacity="0" result="BackgroundImageFix"/>
<feColorMatrix in="SourceAlpha" type="matrix" values="0 0 0 0 0 0 0 0 0 0 0 0 0 0 0 0 0 0 127 0" result="hardAlpha"/>
<feOffset dx="27" dy="32"/>
<feGaussianBlur stdDeviation="2"/>
<feComposite in2="hardAlpha" operator="out"/>
<feColorMatrix type="matrix" values="0 0 0 0 0 0 0 0 0 0 0 0 0 0 0 0 0 0 0.25 0"/>
<feBlend mode="normal" in2="BackgroundImageFix" result="effect1_dropShadow_1010_2400"/>
<feBlend mode="normal" in="SourceGraphic" in2="effect1_dropShadow_1010_2400" result="shape"/>
</filter>
</defs>
</svg>
