<svg width="16" height="17" viewBox="0 0 16 17" fill="none" xmlns="http://www.w3.org/2000/svg">
<path d="M8 16.5C3.5816 16.5 0 12.9184 0 8.5C0 4.0816 3.5816 0.5 8 0.5C12.4184 0.5 16 4.0816 16 8.5C16 12.9184 12.4184 16.5 8 16.5ZM8 14.9C9.69739 14.9 11.3253 14.2257 12.5255 13.0255C13.7257 11.8253 14.4 10.1974 14.4 8.5C14.4 6.80261 13.7257 5.17475 12.5255 3.97452C11.3253 2.77428 9.69739 2.1 8 2.1C6.30261 2.1 4.67475 2.77428 3.47452 3.97452C2.27428 5.17475 1.6 6.80261 1.6 8.5C1.6 10.1974 2.27428 11.8253 3.47452 13.0255C4.67475 14.2257 6.30261 14.9 8 14.9ZM8.8 8.5H12V10.1H7.2V4.5H8.8V8.5Z" fill="black"/>
</svg>
